<?xml version="1.0" standalone="no"?><!DOCTYPE svg PUBLIC "-//W3C//DTD SVG 1.1//EN" "http://www.w3.org/Graphics/SVG/1.1/DTD/svg11.dtd"><svg class="icon" width="32px" height="32.00px" viewBox="0 0 1024 1024" version="1.1" xmlns="http://www.w3.org/2000/svg"><path fill="#1dc39d" d="M903.314286 344.283429H744.594286v97.133714h158.866285V344.283429z m0 124.781714H744.594286V568.32h158.866285V469.065143z m0-249.782857H744.594286v97.206857h158.866285V219.282286z m0 493.568H744.594286v99.181714h158.866285V712.850286z m73.508571-592.603429h-381.074286c-4.022857 0-8.045714 0-11.995428 1.974857V17.261714L17.846857 130.194286v767.049143l563.931429 110.957714v-101.010286c3.949714 1.974857 7.972571 1.974857 11.922285 1.974857h381.147429c19.894857 0 33.792-15.872 33.792-35.620571V155.867429a32.475429 32.475429 0 0 0-31.817143-35.620572zM399.140571 677.229714l-67.510857-3.949714-51.565714-128.877714-55.588571 120.905143-63.561143-3.949715 81.481143-146.724571-73.508572-160.548572 63.561143-4.022857 43.593143 120.905143h8.045714l47.542857-128.804571 67.510857-4.022857-85.430857 170.422857 85.430857 168.667428z m567.734858 188.269715H581.778286v-53.467429h129.024V712.850286H581.778286v-21.869715h129.024V593.92H581.778286v-25.819429h129.024V468.845714H581.778286v-27.794285h129.024V343.844571H581.778286V318.171429h129.024V220.891429H581.778286v-55.442286h385.097143v699.977143z m-63.488-271.579429h-158.866286V691.2h158.866286V593.92z"  /></svg>