<?xml version="1.0" standalone="no"?><!DOCTYPE svg PUBLIC "-//W3C//DTD SVG 1.1//EN" "http://www.w3.org/Graphics/SVG/1.1/DTD/svg11.dtd"><svg class="icon" width="32px" height="31.97px" viewBox="0 0 1025 1024" version="1.1" xmlns="http://www.w3.org/2000/svg"><path fill="#d4237a" d="M744.94299999 505.611c0 13.085-4.49 24.11-13.43 33.062L498.934 771.256c-8.95699999 8.952-19.977 13.43-33.065 13.43-13.335 0-24.417-4.42-33.252-13.252-8.845-8.84000001-13.257-19.92-13.257-33.242 0-13.095 4.48-24.12500001 13.432-33.07700001l153.352-152.97199999L47.235 552.143c-12.83 0-23.797-4.547-32.892-13.63000001-9.09-9.097-13.637-20.06000001-13.637-32.89499999 0-12.85 4.54699999-23.81 13.637-32.89999999 9.095-9.095 20.062-13.65 32.892-13.65000001l538.909 0-153.352-152.955c-8.96-9.45-13.432-20.47000001-13.432-33.08 0-12.85 4.55-23.8 13.635-32.895 9.09000001-9.095 20.06199999-13.645 32.9-13.645 12.605 0 23.632 4.47 33.07 13.43L731.543 472.496c8.96 8.95 13.43000001 19.99 13.43 33.07L744.94299999 505.611zM651.903 45.932c0-12.83 4.55-23.805 13.64-32.885 9.095-9.085 20.065-13.64 32.91-13.64l186.025 0c38.77 0 71.59499999 13.435 98.49 40.33 27.36 27.37 41.05 60.08 41.05 98.115L1024.01799999 883.185c0 38.02199999-13.57 70.965-40.70999999 98.825-27.86 27.145-60.805 40.71-98.83 40.71L698.453 1022.72c-12.855 0-23.81499999-4.542-32.91-13.635-9.09000001-9.095-13.64-20.062-13.64-32.902 0-12.83200001 4.55-23.8 13.64-32.895 9.095-9.092 20.065-13.635 32.91-13.635l186.025 0c12.835 0 23.81-4.542 32.905-13.642 9.09000001-9.092 13.62-20.05200001 13.62-32.897l0-745.321c0-12.595-4.53-23.32-13.62-32.16-9.095-8.84-20.07-13.265-32.905-13.265L698.453 92.368c-12.855 0-23.81499999-4.545-32.91-13.635-9.09000001-9.095-13.64-20.055-13.64-32.89L651.903 45.932z" /></svg>