<?xml version="1.0" standalone="no"?><!DOCTYPE svg PUBLIC "-//W3C//DTD SVG 1.1//EN" "http://www.w3.org/Graphics/SVG/1.1/DTD/svg11.dtd"><svg class="icon" width="32px" height="28.01px" viewBox="0 0 1170 1024" version="1.1" xmlns="http://www.w3.org/2000/svg"><path fill="#cf0304" d="M1024 658.285714c-4.534857 19.529143-53.248 73.142857-73.142857 73.142857H438.857143c-19.456 0-68.242286-54.125714-73.142857-73.142857L146.285714 73.142857H73.142857C49.517714 73.142857 0 67.072 0 43.227429 0 19.382857 49.517714 0 73.142857 0h112.420572c19.456 0 36.498286 13.312 41.398857 32.329143L292.571429 219.428571h804.571428c27.648 0 73.142857 34.889143 73.142857 73.142858s-146.285714 365.714286-146.285714 365.714285z m-548.278857 146.212572c60.050286 0 108.763429 49.152 108.763428 109.714285 0 60.635429-48.713143 109.787429-108.763428 109.787429a109.202286 109.202286 0 0 1-108.690286-109.787429c0-60.562286 48.64-109.714286 108.690286-109.714285z m438.052571 0c60.050286 0 108.763429 49.152 108.763429 109.714285 0 60.635429-48.713143 109.787429-108.763429 109.787429a109.275429 109.275429 0 0 1-108.763428-109.787429c0-60.562286 48.713143-109.714286 108.763428-109.714285z" /></svg>