<?xml version="1.0" standalone="no"?><!DOCTYPE svg PUBLIC "-//W3C//DTD SVG 1.1//EN" "http://www.w3.org/Graphics/SVG/1.1/DTD/svg11.dtd"><svg class="icon" width="32px" height="32.00px" viewBox="0 0 1024 1024" version="1.1" xmlns="http://www.w3.org/2000/svg"><path fill="#d4237a" d="M609.150381 300.21473c-85.161247-85.161247-223.723205-85.178314-308.884452 0-85.178314 85.178314-85.178314 223.757337 0 308.935651 85.144181 85.178314 223.706138 85.19538 308.884452 0.017066 85.178314-85.19538 85.178314-223.774404 0-308.952717z m-257.00265 50.0045a348.905118 348.905118 0 0 0-82.362361 129.550907c-3.635139-52.137798 16.349594-108.252062 59.237413-151.156947 42.358761-42.324628 97.483175-62.360561 149.006583-59.44221a349.519508 349.519508 0 0 0-125.881635 81.04825z m159.843736-350.21923c-282.755821 0-511.991467 229.235646-511.991467 511.991467s229.235646 511.991467 511.991467 511.991467 511.991467-229.235646 511.991467-511.991467-229.21858-511.991467-511.991467-511.991467z m309.191647 821.217246a37.034049 37.034049 0 0 1-52.359661 0l-109.958701-109.975767a36.931651 36.931651 0 0 1-8.225996-39.662272l-20.855119-20.855119c-103.063882 92.192597-261.934834 88.830519-360.902785-10.171564-102.483625-102.483625-102.483625-269.256312 0-371.757004 102.466559-102.517758 269.22218-102.517758 371.688739 0 98.967951 98.985017 102.364161 257.890102 10.171563 360.971051l20.855119 20.872185a36.948718 36.948718 0 0 1 39.645206 8.260129l109.958701 109.941634a37.136448 37.136448 0 0 1-0.017066 52.376727z"  /></svg>