<?xml version="1.0" standalone="no"?><!DOCTYPE svg PUBLIC "-//W3C//DTD SVG 1.1//EN" "http://www.w3.org/Graphics/SVG/1.1/DTD/svg11.dtd"><svg class="icon" width="32px" height="32.00px" viewBox="0 0 1024 1024" version="1.1" xmlns="http://www.w3.org/2000/svg"><path fill="#1dc39d" d="M950.8352 0C991.2832 0 1024 34.4064 1024 76.8v153.6c0 42.3936-32.768 76.8-73.1648 76.8h-36.5568V230.4c0-63.6416-49.152-115.2-109.7216-115.2H219.4432c-60.6208 0-109.7216 51.5584-109.7216 115.2V307.2h-36.5568C32.7168 307.2 0 272.7936 0 230.4v-153.6C0 34.4064 32.768 0 73.1648 0H950.784z"  /><path fill="#1dc39d" d="M813.8752 201.6768c40.8576 0 73.984 33.1264 73.984 73.984v588.9536a36.9664 36.9664 0 0 1-60.1088 28.8256l-32.4096-25.9072-69.376 55.5008a37.0176 37.0176 0 0 1-46.1824 0l-69.376-55.5008-69.4272 55.5008a37.0176 37.0176 0 0 1-46.1312 0l-69.4272-55.5008-69.376 55.5008a37.0176 37.0176 0 0 1-46.1824 0l-69.4272-55.5008-32.4096 25.9072a36.9664 36.9664 0 0 1-60.0576-28.8256V275.6608c0-40.8576 33.1264-73.984 73.984-73.984h591.872z m-111.0016 369.92H332.9536c-24.6784 0-37.0176 12.3392-37.0176 37.0176 0 24.6272 12.3392 36.9664 37.0176 36.9664h369.92c24.6784 0 37.0176-12.288 37.0176-36.9664s-12.3392-37.0176-37.0176-37.0176z m0-147.968H332.9536c-24.6784 0-37.0176 12.288-37.0176 37.0176 0 24.6272 12.3392 36.9664 37.0176 36.9664h369.92c24.6784 0 37.0176-12.288 37.0176-36.9664s-12.3392-37.0176-37.0176-37.0176z"  /></svg>