<?xml version="1.0" standalone="no"?><!DOCTYPE svg PUBLIC "-//W3C//DTD SVG 1.1//EN" "http://www.w3.org/Graphics/SVG/1.1/DTD/svg11.dtd"><svg class="icon" width="32px" height="32.00px" viewBox="0 0 1024 1024" version="1.1" xmlns="http://www.w3.org/2000/svg"><path fill="#1dc39d" d="M947.923019 872.101975c0 41.589603-33.911522 75.501125-75.501124 75.501124H151.962009c-41.589603 0-75.501125-33.911522-75.501124-75.501124v-19.131218H0.31992v19.131218c0 83.179205 68.462884 151.642089 151.642089 151.642089h720.459886c83.179205 0 151.642089-68.462884 151.642089-151.642089v-19.131218h-76.140965v19.131218zM76.460885 151.642089c0-41.589603 33.911522-76.140965 75.501124-76.140964h80.235942v-75.501125H151.962009c-83.179205 0-151.642089 67.823044-151.642089 151.642089v360.229943h76.140965v-360.229943zM872.421895 0h-79.084229v75.501125h79.084229c41.589603 0 75.501125 34.551362 75.501124 76.140964v360.229943h76.140965v-360.229943c0-83.819045-68.462884-151.642089-151.642089-151.642089zM445.968508 566.578355h32.11997v235.141215H445.968508zM339.627093 566.578355h84.458886v235.141215h-84.458886zM199.502124 566.578355h48.947764v235.141215h-48.947764zM109.988503 566.578355h38.902274v235.141215h-38.902274zM0.31992 566.578355h82.731317v235.141215H0.31992zM528.699825 566.578355h111.396151v235.141215H528.699825zM829.552612 566.578355h32.11997v235.141215h-32.11997zM912.347913 566.578355H1023.744064v235.141215h-111.396151zM723.211197 566.578355h84.458885v235.141215h-84.458885zM499.139215 240.835791H284.408898v213.322669h214.730317V240.835791z m-53.682579 161.047738H338.091477V294.51837h107.365159v107.365159z"  /><path fill="#1dc39d" d="M365.604599 320.687828h53.682579v53.682579h-53.682579zM739.975006 0H525.244689v214.730317h214.730317V0z m-53.682579 159.64009H578.927268V53.682579h107.365159v105.957511z"  /><path fill="#1dc39d" d="M606.44039 79.852037h53.682579v53.682579h-53.682579zM686.292427 240.835791h53.682579v53.682579h-53.682579zM525.244689 240.835791h53.682579v53.682579h-53.682579zM578.927268 401.883529h53.68258v52.274931h107.365158V346.857286h-53.682579v53.618595h-53.682579V294.51837h-53.68258v105.957511h-53.682579v53.682579h53.682579zM499.139215 0H284.408898V213.322669h214.730317V0z m-53.682579 161.047738H338.091477V53.682579h107.365159v107.365159z"  /><path fill="#1dc39d" d="M365.604599 79.852037h53.682579v53.682579h-53.682579z"  /></svg>