<?xml version="1.0" standalone="no"?><!DOCTYPE svg PUBLIC "-//W3C//DTD SVG 1.1//EN" "http://www.w3.org/Graphics/SVG/1.1/DTD/svg11.dtd"><svg class="icon" width="32px" height="32.00px" viewBox="0 0 1024 1024" version="1.1" xmlns="http://www.w3.org/2000/svg"><path fill="#ea986c" d="M851.2 448c-19.2-19.2-44.8-32-76.8-32-12.8 0-25.6 0-32 6.4-19.2-32-51.2-51.2-89.6-51.2-12.8 0-25.6 0-38.4 6.4-19.2-38.4-57.6-57.6-96-57.6h-19.2v-51.2c0-32-12.8-57.6-32-76.8-12.8-25.6-44.8-38.4-70.4-38.4-64 0-108.8 51.2-108.8 115.2v288l-19.2-19.2c-19.2-19.2-51.2-32-83.2-32-25.6 0-57.6 12.8-76.8 32-12.8 19.2-25.6 44.8-32 70.4-6.4 32 6.4 64 32 89.6l243.2 243.2c6.4 6.4 12.8 12.8 19.2 12.8 64 44.8 140.8 70.4 217.6 64 51.2 0 102.4-6.4 153.6-25.6 38.4-12.8 70.4-38.4 89.6-70.4 38.4-70.4 51.2-147.2 44.8-224V524.8c6.4-32-6.4-57.6-25.6-76.8z"  /><path fill="#ea986c" d="M211.2 230.4c12.8 0 19.2-12.8 19.2-19.2 0-57.6 32-115.2 76.8-140.8 51.2-32 115.2-32 166.4 0s83.2 83.2 76.8 140.8c0 12.8 12.8 19.2 19.2 19.2s19.2-12.8 19.2-19.2C588.8 96 499.2 6.4 384 6.4 268.8 6.4 179.2 96 179.2 211.2c6.4 12.8 19.2 19.2 32 19.2z"  /></svg>